PathFileType	4	(X/Y/Z)	/Users/itak/Documents/Research/Walk-IL/dataset/trc/00077_00006.trc
DataRate	CameraRate	NumFrames	NumMarkers	Units	OrigDataRate	OrigDataStartFrame	OrigNumFrames
100.000000	100.000000	4	53	mm	100.000000	0	724
Frame#	Time	RPSI			LPSI			L3			STRN			T10			C7			CLAV			RBAK			LBAK			LSHO			LUPA			LAEL			LAOL			LWTS			LWPS			LFRA			LIFD			LHPS			LHTS			RSHO			RUPA			RAEL			RAOL			RWTS			RWPS			RFRA			RIFD			RHTS			RHPS			RBHD			LFHD			RFHD			LBHD			LHIP			RHIP			RASI			LASI			LKNE			LTHI			LANK			LTIP			LTOE			LMT1			LMT5			LHEE			RKNE			RTHI			RANK			RTIP			RTOE			RMT1			RMT5			RHEE			
		X1	Y1	Z1	X2	Y2	Z2	X3	Y3	Z3	X4	Y4	Z4	X5	Y5	Z5	X6	Y6	Z6	X7	Y7	Z7	X8	Y8	Z8	X9	Y9	Z9	X10	Y10	Z10	X11	Y11	Z11	X12	Y12	Z12	X13	Y13	Z13	X14	Y14	Z14	X15	Y15	Z15	X16	Y16	Z16	X17	Y17	Z17	X18	Y18	Z18	X19	Y19	Z19	X20	Y20	Z20	X21	Y21	Z21	X22	Y22	Z22	X23	Y23	Z23	X24	Y24	Z24	X25	Y25	Z25	X26	Y26	Z26	X27	Y27	Z27	X28	Y28	Z28	X29	Y29	Z29	X30	Y30	Z30	X31	Y31	Z31	X32	Y32	Z32	X33	Y33	Z33	X34	Y34	Z34	X35	Y35	Z35	X36	Y36	Z36	X37	Y37	Z37	X38	Y38	Z38	X39	Y39	Z39	X40	Y40	Z40	X41	Y41	Z41	X42	Y42	Z42	X43	Y43	Z43	X44	Y44	Z44	X45	Y45	Z45	X46	Y46	Z46	X47	Y47	Z47	X48	Y48	Z48	X49	Y49	Z49	X50	Y50	Z50	X51	Y51	Z51	X52	Y52	Z52	X53	Y53	Z53	

1	0	297.6601257324219	1034.354125976562	1030.05859375	310.6412963867188	1031.371826171875	1204.903198242188	300.08056640625	1080.659790039062	1123.834350585938	63.40400314331055	1283.93505859375	1124.428100585938	328.2433776855469	1214.220581054688	1127.017944335938	275.6281433105469	1482.526489257812	1128.373046875	95.41253662109375	1397.73095703125	1125.1240234375	335.1409606933594	1342.170776367188	1053.955810546875	296.325439453125	1444.776245117188	1230.2392578125	192.0062713623047	1450.609008789062	1301.990844726562	200.9058685302734	1321.8720703125	1378.82470703125	166.4046020507812	1106.930297851562	1392.085815429688	233.4195709228516	1090.520141601562	1309.40576171875	67.81822967529297	871.1215209960938	1320.955932617188	109.6738662719727	848.140869140625	1373.775756835938	139.619873046875	999.01123046875	1397.02099609375	53.62833023071289	692.5250854492188	1290.5302734375	82.61531066894531	778.8717041015625	1375.528442382812	38.16556930541992	791.5800170898438	1321.365600585938	211.0633697509766	1444.489990234375	951.67333984375	219.2863922119141	1373.301513671875	888.962158203125	232.7841796875	1103.46484375	873.2296752929688	216.5645141601562	1087.988891601562	969.9729614257812	83.75379180908203	857.684814453125	920.0680541992188	151.7587432861328	839.310791015625	868.89404296875	216.5555114746094	1025.1474609375	870.2898559570312	80.99245452880859	675.324462890625	949.5325927734375	53.59894943237305	756.8049926757812	921.5169677734375	109.7018356323242	751.289794921875	866.7948608398438	231.8536224365234	1676.683227539062	1188.269897460938	70.31043243408203	1682.627319335938	1045.61865234375	54.69775009155273	1692.065673828125	1170.359985351562	240.2663116455078	1658.275634765625	1052.309448242188	211.5151977539062	964.576171875	1295.327880859375	230.1429290771484	963.8683471679688	954.4330444335938	106.5543746948242	977.7135009765625	978.0983276367188	96.25345611572266	970.7989501953125	1247.70849609375	174.2910308837891	499.4057312011719	1259.915649414062	194.4347076416016	643.5950927734375	1294.805297851562	270.8356018066406	49.9310188293457	1289.591796875	230.7536773681641	268.3242492675781	1290.32177734375	66.24378204345703	46.07492065429688	1277.953002929688	114.9942855834961	43.8024787902832	1225.237182617188	167.7565612792969	40.63501358032227	1324.927856445312	325.4705810546875	45.33810424804688	1215.426025390625	179.7399139404297	515.0809326171875	963.7276611328125	156.6560821533203	786.3654174804688	940.5463256835938	265.8310546875	45.13142776489258	949.8915405273438	205.8036956787109	399.354248046875	951.8541259765625	50.28847885131836	40.58539962768555	992.48681640625	112.8171615600586	43.50067138671875	1031.037231445312	140.8071441650391	47.38994598388672	937.6122436523438	316.1260375976562	44.7250862121582	1005.105102539062	
2	0.01	297.6390991210938	1034.3544921875	1030.059814453125	310.6262817382812	1031.366943359375	1204.91455078125	300.0489807128906	1080.692260742188	1123.843627929688	63.34426879882812	1283.920654296875	1124.467529296875	328.1777648925781	1214.277221679688	1127.023681640625	275.5020446777344	1482.557006835938	1128.3984375	95.34073638916016	1397.7158203125	1125.157592773438	335.0395812988281	1342.230590820312	1053.970336914062	296.1813659667969	1444.818237304688	1230.26806640625	191.8639221191406	1450.611450195312	1302.0146484375	200.8322906494141	1321.87744140625	1378.84033203125	166.3203277587891	1106.925048828125	1392.093383789062	233.3964691162109	1090.53515625	1309.420532226562	67.72856140136719	871.1507568359375	1320.841796875	109.5534286499023	848.1524047851562	1373.573364257812	139.5788726806641	999.0115356445312	1396.9775390625	53.44065856933594	692.5751342773438	1290.334350585938	82.51823425292969	778.8775634765625	1375.39208984375	37.93112945556641	791.6369018554688	1321.158203125	210.9302062988281	1444.501342773438	951.7175903320312	219.1516723632812	1373.335693359375	888.9817504882812	232.7083435058594	1103.4931640625	873.2260131835938	216.5157165527344	1088.00634765625	969.9761962890625	83.62645721435547	857.7420043945312	920.1167602539062	151.6599273681641	839.3134155273438	868.9762573242188	216.4939422607422	1025.158569335938	870.3047485351562	80.79901123046875	675.419921875	949.6466064453125	53.48072814941406	756.8633422851562	921.6246337890625	109.5933532714844	751.3035278320312	866.923583984375	232.1215515136719	1676.424194335938	1188.2998046875	70.55750274658203	1682.965209960938	1045.727294921875	55.06695938110352	1692.51318359375	1170.437255859375	240.3766937255859	1657.998657226562	1052.307495117188	211.5099029541016	964.5742797851562	1295.329833984375	230.1229095458984	963.869140625	954.4423217773438	106.459602355957	977.7193603515625	978.0628051757812	96.24611663818359	970.7960815429688	1247.724975585938	174.2299346923828	499.400390625	1259.913696289062	194.4130401611328	643.60302734375	1294.793823242188	270.8349914550781	49.93165969848633	1289.586181640625	230.7165222167969	268.3251953125	1290.309204101562	66.21884918212891	46.05862808227539	1277.939819335938	114.9933090209961	43.79531097412109	1225.229248046875	167.7430572509766	40.64154434204102	1324.92724609375	325.47412109375	45.34104919433594	1215.422241210938	179.6843566894531	515.0797119140625	963.7396240234375	156.6251678466797	786.37060546875	940.565673828125	265.8285522460938	45.13091659545898	949.8974609375	205.7424774169922	399.3619995117188	951.8624877929688	50.31643676757812	40.57388687133789	992.5255737304688	112.8097610473633	43.49943923950195	1031.041381835938	140.805419921875	47.39347457885742	937.6075439453125	316.1258850097656	44.72492980957031	1005.105102539062	
3	0.02	297.6124267578125	1034.362426757812	1030.061645507812	310.6063537597656	1031.36376953125	1204.926879882812	300.0101623535156	1080.734741210938	1123.855224609375	63.27415466308594	1283.905883789062	1124.515869140625	328.0960998535156	1214.345581054688	1127.031494140625	275.3501892089844	1482.594604492188	1128.430053710938	95.24951934814453	1397.701171875	1125.199462890625	334.9176940917969	1342.304321289062	1053.987548828125	296.006103515625	1444.869018554688	1230.305541992188	191.6897888183594	1450.620239257812	1302.046752929688	200.7307281494141	1321.892578125	1378.8623046875	166.2147979736328	1106.9228515625	1392.101684570312	233.3664398193359	1090.55908203125	1309.438598632812	67.6048583984375	871.1929931640625	1320.686767578125	109.4284744262695	848.1759033203125	1373.350708007812	139.5201873779297	999.0153198242188	1396.924682617188	53.24139404296875	692.6268310546875	1290.078002929688	82.39926147460938	778.86181640625	1375.223388671875	37.70619201660156	791.691650390625	1320.919189453125	210.777587890625	1444.52001953125	951.7694702148438	218.9735870361328	1373.3828125	889.0057983398438	232.6099853515625	1103.534790039062	873.2228393554688	216.4481353759766	1088.033325195312	969.9807739257812	83.489013671875	857.8099365234375	920.1873779296875	151.5370025634766	839.3234252929688	869.0728149414062	216.4037780761719	1025.180786132812	870.3230590820312	80.58663940429688	675.5282592773438	949.7865600585938	53.34492874145508	756.9295043945312	921.7582397460938	109.4687576293945	751.3203125	867.0790405273438	232.4712524414062	1676.079833984375	1188.333740234375	70.88565826416016	1683.412109375	1045.86474609375	55.55405044555664	1693.065795898438	1170.551391601562	240.5355682373047	1657.644653320312	1052.307983398438	211.5020446777344	964.574462890625	1295.333129882812	230.1018218994141	963.871826171875	954.453857421875	106.3778839111328	977.724609375	978.041259765625	96.23622131347656	970.79443359375	1247.743530273438	174.1610260009766	499.3941345214844	1259.91015625	194.3909301757812	643.6138305664062	1294.780151367188	270.8335876464844	49.93144607543945	1289.57958984375	230.6737365722656	268.3243713378906	1290.295288085938	66.19738006591797	46.04668426513672	1277.928588867188	114.9918365478516	43.7896842956543	1225.223266601562	167.7279205322266	40.64897918701172	1324.924438476562	325.4771728515625	45.34344863891602	1215.41845703125	179.6203308105469	515.0809326171875	963.752685546875	156.5898284912109	786.3773803710938	940.587646484375	265.8271484375	45.13131332397461	949.9031372070312	205.6724243164062	399.37158203125	951.8731079101562	50.35025787353516	40.56068801879883	992.5693359375	112.8019561767578	43.49916458129883	1031.045654296875	140.8033294677734	47.39798355102539	937.601318359375	316.1256408691406	44.72482681274414	1005.105163574219	
4	0.03	297.5804138183594	1034.379516601562	1030.064697265625	310.5816955566406	1031.36376953125	1204.939331054688	299.9658508300781	1080.785522460938	1123.868286132812	63.19765472412109	1283.892700195312	1124.570068359375	328.0024108886719	1214.4208984375	1127.041259765625	275.1817321777344	1482.637084960938	1128.466430664062	95.1427001953125	1397.689208984375	1125.247924804688	334.7832336425781	1342.386474609375	1054.006591796875	295.8108825683594	1444.924560546875	1230.3505859375	191.4942626953125	1450.636962890625	1302.086669921875	200.6025238037109	1321.919677734375	1378.890502929688	166.0933685302734	1106.92578125	1392.109619140625	233.3289184570312	1090.592651367188	1309.459228515625	67.44835662841797	871.2478637695312	1320.492919921875	109.3132705688477	848.2135009765625	1373.13134765625	139.4431915283203	999.0234375	1396.864990234375	53.05685043334961	692.673828125	1289.771484375	82.26371002197266	778.8163452148438	1375.02978515625	37.52468872070312	791.7349243164062	1320.665649414062	210.6177062988281	1444.547119140625	951.8253173828125	218.7581176757812	1373.442504882812	889.0333862304688	232.4921112060547	1103.589965820312	873.221435546875	216.3605346679688	1088.070068359375	969.987548828125	83.35511016845703	857.8829956054688	920.2801513671875	151.3953094482422	839.3431396484375	869.1759643554688	216.2826080322266	1025.216430664062	870.3441772460938	80.38164520263672	675.6393432617188	949.944091796875	53.20370101928711	756.996337890625	921.910888671875	109.3384628295898	751.3394165039062	867.2503051757812	232.8936157226562	1675.658325195312	1188.368286132812	71.28675079345703	1683.956420898438	1046.0244140625	56.14487075805664	1693.696899414062	1170.7060546875	240.7451477050781	1657.2255859375	1052.311645507812	211.4915161132812	964.5774536132812	1295.338134765625	230.0817565917969	963.876953125	954.467529296875	106.3108978271484	977.7289428710938	978.0318603515625	96.22366333007812	970.7943725585938	1247.762084960938	174.0910491943359	499.3876342773438	1259.905395507812	194.3705749511719	643.6259765625	1294.765502929688	270.8314208984375	49.93039703369141	1289.572875976562	230.6293334960938	268.3212585449219	1290.281127929688	66.18154144287109	46.04030990600586	1277.920288085938	114.989860534668	43.78612899780273	1225.219970703125	167.7127532958984	40.65644073486328	1324.919067382812	325.4791870117188	45.34474945068359	1215.414794921875	179.5530700683594	515.0850830078125	963.7658081054688	156.5531463623047	786.3857421875	940.6107177734375	265.8272705078125	45.13306427001953	949.9080200195312	205.5977630615234	399.3819885253906	951.8853759765625	50.39044570922852	40.54589080810547	992.6159057617188	112.7952499389648	43.49981307983398	1031.049682617188	140.8016357421875	47.40334320068359	937.5946655273438	316.1254272460938	44.72484588623047	1005.105224609375	
